<svg width="101" height="22" viewBox="0 0 101 22" fill="none" xmlns="http://www.w3.org/2000/svg">
<path d="M11.66 5.06667V10.4H7.67333V11.4667H11.66V16.2667H12.6467V5.06667H11.66ZM5.7 16.2667H6.68666V5.06667H5.7V16.2667Z" fill="#0F172A"/>
<path d="M32.74 6.16C32.5267 5.78667 32.1667 5.50667 31.66 5.32C31.1933 5.14667 30.4867 5.06667 29.5533 5.06667C28.62 5.06667 27.9667 5.14667 27.4733 5.32C26.9667 5.50667 26.6067 5.78667 26.38 6.18667C26.1533 6.58667 26.02 7.17333 25.98 7.97333V16.2667H26.9933V11.2933H28.02V10.2133H26.9933V7.85333C27.0333 7.26667 27.1133 6.86667 27.2467 6.65333C27.4867 6.25333 28.2467 6.05333 29.5533 6.05333C30.86 6.05333 31.6467 6.25333 31.86 6.64C31.9933 6.84 32.0733 7.22667 32.1133 7.8V10.2133H29.0333V11.2933H32.1133V16.2667H33.1133V7.93333C33.0733 7.13333 32.9533 6.54667 32.74 6.16Z" fill="#0F172A"/>
<path d="M53.6333 6.21333C53.42 5.77333 53.02 5.46667 52.4333 5.32C51.8467 5.16 50.9133 5.08 49.6333 5.06667H46.4467V16.2667H47.46V11.6133H49.0867V10.5733H47.46V6.09333H51.06C51.6333 6.09333 52.0733 6.18667 52.3933 6.36C52.5533 6.42667 52.6867 6.6 52.78 6.89333C52.8733 7.17333 52.9267 7.66667 52.9267 8.34667C52.9267 9.48 52.7533 10.1333 52.3933 10.32C52.1267 10.48 51.6867 10.56 51.1 10.5733H49.9133V11.6H51.14L51.86 11.5333L52.1533 11.4667L52.5133 11.3333C52.9933 11.1867 53.3533 10.8933 53.5933 10.4533C53.8333 10.0267 53.9533 9.32 53.9533 8.34667C53.9533 7.37333 53.8467 6.66667 53.6333 6.21333Z" fill="#0F172A"/>
<path d="M71.5933 5.07333C70.3267 5.08667 69.4066 5.16667 68.82 5.31333C68.2333 5.46 67.8467 5.76667 67.62 6.20667C67.4067 6.66 67.2867 7.36667 67.2867 8.34V12.9933C67.2867 13.98 67.4067 14.6867 67.6467 15.1133C67.9 15.54 68.2467 15.8467 68.7133 16.0067L69.1 16.1267L69.3933 16.1933L70.1266 16.26H74.1133V15.2467H70.14C69.5133 15.1933 69.0733 15.1 68.8467 14.98C68.4867 14.78 68.3 14.1133 68.3 12.9933V11.22H71.78V10.1267H68.3V8.34C68.3 7.20667 68.4733 6.54 68.82 6.35333C69.06 6.23333 69.4467 6.15333 69.9667 6.11333H70.18L74.1133 6.1V5.07333H71.5933ZM72.9533 11.22H74.1133V10.1267H72.9533V11.22Z" fill="#0F172A"/>
<path d="M93.0733 11.4933L93.18 11.4667L93.5266 11.3333C94.0066 11.1733 94.3666 10.88 94.5933 10.4533C94.8333 10.0267 94.9533 9.32 94.9533 8.33333C94.9533 7.34667 94.82 6.58667 94.5667 6.12C94.3133 5.66667 93.9133 5.37333 93.3666 5.25333C92.82 5.13333 91.9666 5.06667 90.8066 5.06667H87.4466V16.2667H88.4733V11.6133H91.2866V10.5867H88.4733V6.09333H92.3C92.8466 6.16 93.2333 6.24 93.4333 6.36C93.78 6.53333 93.9533 7.18667 93.9533 8.33333C93.9533 9.05333 93.9 9.54667 93.7933 9.8C93.6733 10.0533 93.5533 10.2267 93.42 10.32C93.1533 10.4667 92.7266 10.56 92.14 10.5867H92.02V11.6L94.1933 16.2667H95.3L93.0733 11.4933Z" fill="#0F172A"/>
</svg>
